<?xml version="1.0" encoding="UTF-8"?>
<svg id="_圖層_1" data-name="圖層_1" xmlns="http://www.w3.org/2000/svg" version="1.1" viewBox="0 0 877.29 259.06">
  <!-- Generator: Adobe Illustrator 30.3.0, SVG Export Plug-In . SVG Version: 2.1.3 Build 182)  -->
  <path d="M319.84,123.5h1.16c2.39,0,5.74-1.42,5.8-1.87v-9.67c1.23-.26,2-.77,2.39-1.29l-6.77-4.97-3.22,3.35h-9.22l-7.16-2.84v18.25h.97c2.77,0,5.93-1.48,5.93-2.06v-2.06h10.12v3.16ZM309.72,118.53v-7.61h10.12v7.61h-10.12ZM325.2,99.7c2.39,0,6.26-1.16,6.32-1.55v-9.48c1.29-.26,2.13-.84,2.52-1.35l-7.35-5.55-3.42,3.8h-16.77l-7.87-3.1v17.93h1.03c3.1,0,6.45-1.61,6.45-2.19v-1.42h17.8v2.9h1.29ZM306.11,94.99v-7.55h17.8v7.55h-17.8ZM299.71,155h.59c.27,0,.49.03.64.1.12.05.21.11.26.2.07.11.11.24.14.4.03.2.04.42.02.63-.04.37-.27,1.11-1.07,2.56l-3.93,7.13-2.32-7.41c-.45-1.44-.51-2.06-.47-2.33.03-.23.09-.42.18-.57.1-.16.21-.3.34-.4.12-.1.26-.17.4-.22.15-.05.3-.07.44-.07h.86l.22-1.77h-8.71l-.22,1.77h.59c.16,0,.31.04.44.11.17.09.32.2.45.32.14.13.25.26.34.38.09.13.15.23.18.28.08.16.19.43.33.8.15.39.32.92.53,1.57l3.52,10.98-.76,6.23c-.23,1.87-.46,2.47-.57,2.66-.31.52-.72.76-1.29.76h-1.09l-.22,1.77h8.66l.22-1.77h-1.17c-.68,0-.9-.28-1.02-.53-.05-.11-.21-.64.05-2.77l.79-6.53,5.53-10.04c.35-.62.66-1.16.93-1.62.26-.43.49-.79.7-1.07.19-.25.4-.48.61-.68.21-.2.42-.36.62-.49.19-.12.37-.22.52-.29.18-.08.25-.08.25-.08h.8l.22-1.77h-7.3l-.22,1.77ZM758.22,177.56s-.08.08-.11.1c-.01-.07-.02-.19-.02-.38,0-.19.03-.54.08-1.04.05-.52.13-1.21.23-2.07l.75-6.1c.22-1.82.28-2.96.18-3.6-.19-1.14-.66-1.96-1.38-2.44-.69-.46-1.56-.7-2.59-.7-.77,0-1.49.15-2.14.44-.64.29-1.2.67-1.67,1.15-.47.47-.85,1-1.13,1.59-.29.59-.47,1.19-.55,1.79-.08.69-.02,1.25.19,1.68.34.7.9.8,1.2.8.5,0,.94-.24,1.29-.7.3-.4.5-.95.58-1.65l.11-1.12c.03-.23.09-.45.19-.67.09-.22.21-.41.36-.56.14-.16.3-.28.49-.38.16-.09.34-.13.54-.13.26,0,.48.05.67.16.16.09.29.26.39.51.12.3.2.73.22,1.27.02.57-.02,1.3-.12,2.17l-.05.43c-2.1,1.07-3.67,2.01-4.66,2.79-.45.35-.85.72-1.19,1.09-.36.38-.66.78-.91,1.19-.25.41-.45.86-.61,1.33-.16.46-.27.97-.34,1.51-.09.73-.09,1.41-.01,2.02.08.62.24,1.17.47,1.63.24.48.57.86.97,1.14.41.28.88.42,1.4.42.65,0,1.27-.19,1.85-.57.2-.12.59-.42,1.78-1.59.02.48.1.87.24,1.17.4.84,1.06.97,1.42.97,1.11,0,2.28-1.04,3.66-3.27l.04-.06.36-2.99s-1.62,2.03-1.78,2.23c-.15.19-.28.33-.39.44ZM754.93,176.24c-1.47,1.51-2.16,1.68-2.39,1.68-.13,0-.25-.04-.36-.13-.14-.11-.27-.28-.36-.49-.11-.25-.2-.55-.24-.89-.05-.36-.04-.75,0-1.17.08-.66.29-1.29.63-1.84.34-.56.87-1.12,1.59-1.67.19-.15.51-.36.96-.63.25-.15.54-.31.86-.5l-.69,5.66ZM739.44,76.16c2.64-.19,4.9-.71,5.74-1.74l-6.64-4.58-2.52,4h-6.32l.58,1.81h7.48c2.06,13.16,7.09,23.28,16.19,29.73.9-3.16,3.55-6.19,6.84-7.35l.13-.77c-10.83-3.81-18.57-11.87-21.48-21.09ZM687.54,162.23c-.17-.27-.39-.48-.64-.64-.27-.17-.58-.25-.91-.25-.9,0-1.82.69-2.79,2.09l.26-2.09h-1.28l-4.33,2.42.12,1.84.71-.38c.36-.19.59-.23.72-.23.17,0,.22.36.22.66.01.23-.04,1.05-.36,3.64l-.85,6.96c-.09.7-.18,1.26-.28,1.68-.09.36-.2.65-.33.83-.1.14-.22.23-.37.28-.2.06-.48.09-.81.09h-.46l-.21,1.75h7.24l.21-1.75h-.59c-.36,0-.64-.06-.82-.17-.16-.1-.27-.24-.34-.43-.09-.24-.13-.55-.12-.91,0-.41.05-.88.11-1.4l1.01-8.45c.2-.43.4-.83.6-1.19.19-.36.38-.66.55-.92.16-.24.31-.42.44-.54,0,0,0,0,.01-.01.13.14.27.29.43.45.17.18.35.34.52.49.26.23.54.34.81.34.49,0,.92-.25,1.3-.73.33-.42.53-.94.61-1.55.04-.34.03-.67-.03-.99-.07-.32-.18-.62-.34-.87ZM669.55,164.37c-.45-.9-1.03-1.64-1.75-2.18-.74-.56-1.61-.85-2.57-.85s-1.91.31-2.78.92c-.84.59-1.59,1.37-2.25,2.32-.65.94-1.2,2.02-1.64,3.23-.44,1.2-.73,2.43-.89,3.68-.15,1.24-.16,2.46-.02,3.62.14,1.18.42,2.23.84,3.14.43.94,1,1.7,1.69,2.27.73.6,1.59.9,2.56.9s1.92-.3,2.8-.9c.85-.57,1.62-1.36,2.29-2.32.66-.95,1.23-2.04,1.68-3.26.45-1.21.76-2.5.93-3.83.16-1.27.16-2.49,0-3.64-.15-1.16-.45-2.19-.89-3.08ZM666.77,172.48c-.16,1.26-.36,2.34-.61,3.19-.25.84-.53,1.52-.83,2.02-.29.47-.59.81-.91,1.01-.3.19-.62.28-.94.28-.42,0-.76-.19-1.07-.58-.36-.46-.65-1.11-.85-1.91-.21-.85-.34-1.84-.37-2.96-.04-1.13.02-2.33.17-3.57.14-1.19.35-2.21.61-3.03.25-.8.55-1.47.87-1.98.3-.47.61-.82.93-1.01.31-.19.6-.28.88-.28.45,0,.8.18,1.11.56.36.44.64,1.05.84,1.83.21.81.32,1.78.35,2.87.03,1.11-.04,2.31-.19,3.57ZM650.32,153.01c-.13.48-.3.87-.5,1.17-.19.29-.31.29-.3.3,0,0-.12-.04-.45-.32-1.24-1.02-2.58-1.53-3.99-1.53-.78,0-1.58.14-2.35.4-.76.26-1.52.65-2.25,1.15-.72.5-1.41,1.12-2.06,1.84-.65.73-1.26,1.55-1.8,2.46-.78,1.28-1.42,2.7-1.9,4.22-.48,1.5-.82,3.08-1.02,4.69-.41,3.36-.15,6.33.8,8.83,1.3,3.48,3.58,5.24,6.78,5.24.87,0,1.72-.15,2.52-.43.79-.29,1.56-.74,2.28-1.33.71-.59,1.39-1.34,2.04-2.23.64-.88,1.27-1.93,1.87-3.13l.16-.32-1.06-1.15-.37.56c-.6.92-1.15,1.73-1.64,2.41-.47.66-.95,1.22-1.42,1.65-.44.41-.92.72-1.43.92-.5.2-1.09.3-1.76.3-.58,0-1.13-.11-1.64-.31-.51-.21-.97-.52-1.37-.92-.41-.41-.76-.94-1.06-1.56-.3-.63-.52-1.39-.66-2.24-.29-1.72-.29-3.77,0-6.11.19-1.54.44-2.94.75-4.18.31-1.23.67-2.34,1.08-3.3.73-1.72,1.59-3,2.55-3.81.93-.78,1.94-1.18,3.01-1.18.63,0,1.2.13,1.69.37.49.25.93.65,1.3,1.19.39.57.72,1.31.98,2.22.26.94.45,2.07.55,3.37l.04.48h1.37l.78-10.08h-1.42l-.1.38ZM725.12,79.26c1.55.13,2.39-.39,2.71-1.16l-10.45-3.93c-3.29,12.12-9.8,23.48-16.32,30.31l.64.58c9.74-5.29,17.74-13.48,23.41-25.8ZM692.42,123.17c-6.32-2.13-11.93-6.13-16.19-11.67,4.45-1.23,9.03-3.1,11.35-4.32,1.23.39,2,.32,2.45-.32l-7.03-5.16c1.55-.52,2.84-1.23,2.84-1.55v-21.86c1.35-.32,2.19-.84,2.58-1.35l-7.09-5.48-3.48,3.81h-13.09l-8.06-3.29v5.61l-6.64-6.26-3.87,3.81h-4.45l-7.8-3.03v58.88h1.23c3.61,0,5.74-1.74,5.74-2.26v-51.79h5.74c-.84,5.09-2.39,12.83-3.55,16.96,3.68,4.32,5.09,9.29,5.09,13.8,0,1.94-.58,3.03-1.48,3.61-.39.26-.77.32-1.42.32h-4.19v.84c1.55.32,2.64.9,3.1,1.61.58.97.84,3.87.84,5.93,7.55-.13,10.12-3.93,10.12-10.32,0-5.22-3.1-11.61-10.51-15.93,3.42-4,7.48-10.77,9.74-14.77,1.03-.07,1.81-.13,2.32-.39v41.14c0,1.61-.39,2.26-2.77,3.48l3.68,7.93c.77-.39,1.74-1.16,2.32-2.45,6.26-3.74,11.54-7.48,14.25-9.42l-.19-.77c-3.42.9-6.96,1.74-10.06,2.39v-21.15h5.03c2.64,15.09,7.74,24.76,17.8,30.57.84-3.48,3.03-5.74,5.55-6.45l.13-.71ZM663.92,77.06h14.57v9.16h-14.57v-9.16ZM663.92,97.89v-9.8h14.57v9.8h-14.57ZM670.11,99.76h8.38v2.58h1.23c.45,0,.97-.06,1.55-.19-1.55,2.26-4,5.42-6.19,7.8-2.06-2.97-3.8-6.45-4.97-10.19ZM783.81,119.89v-5.55h13.93v5.22h1.29c2.52,0,6.06-1.55,6.13-2.06v-18.64c1.35-.26,2.19-.84,2.64-1.35l-7.22-5.48-3.48,3.8h-12.96l-7.55-3.03v29.47h1.1c3.03,0,6.13-1.68,6.13-2.39ZM783.81,97.64h13.93v14.83h-13.93v-14.83ZM788.43,152.79c-.14-.25-.32-.45-.53-.6-.24-.16-.51-.25-.8-.25s-.55.08-.81.23c-.24.14-.45.32-.63.55-.17.21-.32.47-.44.75-.12.28-.2.59-.24.91-.04.32-.03.63.01.93.05.3.14.57.27.8.14.25.32.46.53.61.24.17.51.25.8.25s.55-.08.81-.23c.23-.14.44-.33.62-.56.17-.22.31-.46.43-.76.12-.28.2-.59.23-.91.04-.32.04-.63-.01-.93-.05-.3-.14-.56-.26-.79ZM773.62,155.96h-1.35l-.13.33c-.25.66-.48,1.21-.68,1.65-.19.44-.35.78-.47,1.01-.49.9-1.02,1.69-1.59,2.35-.55.64-1.06,1.09-1.52,1.34l-.23.13-.18,1.5h1.92l-1.41,11.49c-.17,1.34-.19,2.36-.07,3.03.06.36.16.69.31.98.15.28.32.53.52.72.21.21.44.37.7.48.26.11.53.17.8.17.38,0,.77-.1,1.17-.3.37-.19.73-.47,1.07-.83.33-.35.65-.79.95-1.3.3-.51.57-1.1.82-1.77l.26-.7h-1.61l-.13.32c-.18.44-.4.78-.64.99-.21.18-.4.27-.55.27-.08,0-.14-.02-.18-.04,0,0-.05-.04-.11-.2-.04-.12-.09-.35-.11-.76-.01-.35.02-.81.08-1.38l1.37-11.19h2.83l.3-2.41h-2.83l.72-5.9ZM785.79,176.35l1.84-15.01h-1.3l-4.34,2.44.25,1.78.65-.34c.39-.21.6-.24.69-.24.05,0,.12,0,.12,0,.01.04.03.12.04.26.02.29,0,.75-.04,1.39-.05.65-.15,1.54-.29,2.67l-.85,6.92c-.16,1.3-.32,1.87-.42,2.11-.07.17-.15.32-.22.44-.04.07-.1.13-.17.18-.07.05-.17.09-.28.11-.17.03-.39.05-.64.05h-.46l-.21,1.75h6.93l.21-1.75h-.59c-.63,0-.79-.13-.79-.13-.07-.06-.12-.13-.17-.21,0,0-.04-.07-.07-.28-.02-.2-.02-.46,0-.79.02-.35.06-.8.13-1.36ZM705.52,164.29c-.32-.88-.77-1.59-1.33-2.11-.6-.56-1.32-.85-2.14-.85-.41,0-.83.09-1.24.27-.4.17-.81.45-1.21.82-.37.34-.75.79-1.13,1.33l.29-2.34h-1.23l-4.42,2.47.22,1.7.65-.33c.42-.21.58-.22.61-.22.15,0,.23.03.24.03t0,0s.02.03.05.12c.03.12.06.36.04.81-.02.4-.07.94-.16,1.62l-2.08,16.98c-.19,1.55-.33,2.1-.41,2.3-.13.33-.3.54-.49.63-.25.11-.51.17-.79.17h-.79l-.22,1.77h7.39l.22-1.77h-.59c-.77,0-.97-.14-1.01-.18-.08-.06-.14-.12-.19-.19,0,0-.04-.06-.06-.22-.02-.12-.03-.35,0-.76.02-.37.07-.86.15-1.49l.52-4.22c.19.18.39.32.59.44.26.15.55.25.85.29.27.04.56.07.88.07.96,0,1.86-.31,2.7-.92.79-.58,1.51-1.38,2.14-2.35.61-.95,1.14-2.08,1.56-3.36.42-1.26.72-2.61.89-3.99.15-1.25.19-2.44.1-3.53-.09-1.12-.29-2.11-.59-2.95ZM702.4,172.5c-.12.99-.3,1.93-.55,2.78-.23.83-.52,1.56-.85,2.16-.31.57-.67,1.02-1.06,1.34-.36.29-.72.42-1.11.42-.27,0-.51-.06-.72-.17-.22-.12-.41-.28-.57-.49-.17-.21-.3-.46-.39-.75-.1-.3-.15-.62-.16-.96-.02-.28.01-.99.23-2.77l.8-6.55c.33-.38.62-.72.88-1.01.28-.31.53-.57.76-.77.21-.18.41-.32.58-.4.14-.07.28-.1.42-.1.33,0,.61.13.86.42.3.34.53.83.7,1.45.18.65.3,1.45.33,2.37.03.93-.02,1.95-.15,3.04ZM827.27,179.12c-.31,0-.58-.02-.76-.07-.07-.02-.13-.05-.18-.16-.05-.11-.12-.33-.12-.78,0-.42.04-1.01.14-1.76l.94-7.67c.16-1.32.22-2.44.16-3.33-.06-.92-.21-1.67-.45-2.25-.26-.62-.61-1.08-1.06-1.36-.43-.27-.93-.41-1.48-.41-1.16,0-2.4.8-3.76,2.44l.3-2.44h-1.29l-4.35,2.44.28,1.78.64-.34c.31-.16.5-.22.66-.22.04,0,.07,0,.1,0,0,0,.09.14.09.68,0,.46-.12,1.76-.37,3.87l-.82,6.67c-.08.64-.16,1.17-.25,1.57-.09.37-.19.67-.31.88-.1.17-.21.28-.33.34-.14.07-.33.1-.57.1h-.72l-.21,1.75h7.03l.21-1.75h-.59c-.29,0-.54-.02-.7-.05-.17-.03-.24-.08-.27-.1-.04-.03-.06-.06-.08-.11-.05-.12-.08-.25-.11-.42-.02-.12-.05-.55.14-2.09l1.15-9.33c1.09-1.46,2.11-2.23,2.94-2.23.32,0,.64.09.81.72.18.67.17,1.8-.02,3.36l-.9,7.35c-.08.64-.16,1.17-.24,1.59-.07.37-.17.67-.29.87-.09.16-.2.26-.33.32-.11.05-.34.11-.74.11h-.71l-.21,1.75h7.03l.21-1.75h-.59ZM811.48,87.51c.97,0,1.68-.32,1.87-1.03-2.9-2.52-7.61-6.19-7.61-6.19l-4.26,5.35h-30.5l.52,1.87h39.98ZM743.07,162.23c-.17-.27-.39-.48-.64-.64-.27-.17-.58-.25-.91-.25-.9,0-1.82.69-2.79,2.09l.26-2.09h-1.28l-4.33,2.42.12,1.84.71-.38c.36-.19.59-.23.72-.23.17,0,.22.36.22.66.01.23-.04,1.05-.36,3.64l-.85,6.96c-.09.7-.18,1.26-.28,1.68-.09.36-.2.65-.33.83-.1.14-.22.23-.37.28-.2.06-.48.09-.81.09h-.46l-.21,1.75h7.24l.21-1.75h-.59c-.36,0-.64-.06-.82-.17-.16-.1-.27-.24-.34-.43-.09-.24-.13-.55-.12-.91,0-.41.05-.88.11-1.4l1.01-8.45c.2-.43.4-.83.6-1.19.2-.36.38-.66.55-.92.16-.24.31-.42.44-.54,0,0,0,0,.01-.01.13.14.27.29.43.45.17.18.35.34.52.49.26.23.54.34.81.34.49,0,.92-.25,1.3-.73.33-.42.53-.94.61-1.55.04-.34.03-.67-.03-.99-.07-.32-.18-.62-.34-.87ZM49.44,229.53h200V29.53H49.44v200ZM73.87,215.22l37.68-37.68,37.69,37.68h-75.37ZM235.13,215.22h-51.34l51.34-51.34v51.34ZM235.13,129.32l-37.68-37.68,37.68-37.68v75.37ZM63.75,43.84h161.26l-37.68,37.68-10.12,10.12,10.12,10.12,44.84,44.84-65.65,65.66-44.84-44.84-10.12-10.12-10.12,10.12-37.68,37.68V43.84ZM725.09,164.37c-.45-.9-1.03-1.64-1.75-2.18-.74-.56-1.61-.85-2.57-.85s-1.91.31-2.78.92c-.84.59-1.59,1.37-2.25,2.32-.65.94-1.2,2.02-1.64,3.23-.44,1.2-.73,2.43-.89,3.68-.15,1.24-.16,2.46-.02,3.62.14,1.18.42,2.23.84,3.14.43.94,1,1.7,1.69,2.27.73.6,1.59.9,2.56.9s1.92-.3,2.8-.9c.85-.57,1.62-1.36,2.29-2.32.66-.95,1.23-2.04,1.68-3.26.45-1.21.76-2.5.93-3.83.16-1.27.16-2.49,0-3.64-.15-1.16-.45-2.19-.89-3.08ZM722.3,172.48c-.16,1.26-.36,2.34-.61,3.19-.25.84-.53,1.52-.83,2.02-.29.47-.59.81-.91,1.01-.3.19-.62.28-.94.28-.42,0-.76-.19-1.07-.58-.36-.46-.65-1.11-.85-1.91-.21-.85-.34-1.84-.37-2.96-.04-1.13.02-2.33.17-3.57.14-1.19.35-2.21.61-3.03.25-.8.55-1.47.87-1.98.3-.47.61-.82.93-1.01.31-.19.6-.28.88-.28.45,0,.8.18,1.11.56.36.44.64,1.05.84,1.83.21.81.32,1.78.35,2.87.03,1.11-.04,2.31-.19,3.57ZM739.12,105.89l-.71.39c2.71,3.74,5.35,8.32,7.29,13.03-12.64,1.16-25.15,1.94-33.28,2.19,7.42-6,16.06-15.86,20.38-23.09,1.42.07,2.19-.52,2.52-1.23l-10.96-4.19c-2.19,8.13-9.87,22.44-14.96,27.09-.77.65-2.71,1.1-2.71,1.1l3.22,9.87c.84-.26,1.61-.84,2.26-1.74,14.25-2.64,25.86-5.55,34.31-8.06.97,2.71,1.61,5.42,1.93,8,8.71,7.35,15.54-12.12-9.29-23.35ZM824.83,121.76v-43.6c1.35-.26,2.26-.84,2.71-1.42l-7.48-5.87-3.61,4.13h-43.47l.58,1.87h43.6v44.05c0,1.03-.39,1.55-1.74,1.55-1.81,0-11.48-.65-11.48-.65v.9c4.26.71,6.13,1.61,7.61,2.84,1.35,1.16,1.87,2.97,2.26,5.48,9.74-.9,11.03-4,11.03-9.29ZM807.12,164.37c-.45-.9-1.03-1.64-1.75-2.18-.74-.56-1.61-.85-2.57-.85s-1.91.31-2.78.92c-.83.58-1.59,1.36-2.25,2.32-.65.94-1.2,2.02-1.64,3.23-.44,1.2-.73,2.43-.89,3.68-.15,1.24-.16,2.46-.02,3.62.14,1.17.42,2.23.84,3.14.43.94,1,1.7,1.69,2.27.73.6,1.59.9,2.56.9s1.92-.3,2.8-.9c.85-.57,1.62-1.36,2.29-2.32.66-.95,1.23-2.04,1.68-3.26.45-1.21.76-2.5.93-3.83.16-1.26.16-2.49,0-3.64-.16-1.16-.46-2.2-.89-3.08ZM804.33,172.48c-.16,1.26-.36,2.34-.61,3.19-.24.84-.52,1.52-.83,2.02-.29.47-.59.81-.91,1.01-.3.19-.62.28-.94.28-.42,0-.76-.19-1.07-.58-.36-.46-.65-1.11-.85-1.91-.21-.85-.34-1.84-.37-2.96-.04-1.12.02-2.32.17-3.57.14-1.19.35-2.21.61-3.03.25-.8.55-1.47.87-1.98.3-.47.61-.82.93-1.02.3-.19.6-.28.88-.28.45,0,.8.18,1.11.56.36.44.64,1.05.84,1.83.21.81.32,1.78.35,2.87.03,1.11-.04,2.31-.19,3.57ZM547.17,164.29c-.32-.88-.77-1.59-1.32-2.11-.6-.56-1.32-.85-2.14-.85-.41,0-.83.09-1.24.27-.4.17-.81.45-1.21.82-.37.34-.74.79-1.13,1.33l.29-2.34h-1.23l-4.42,2.47.22,1.7.65-.33c.42-.21.58-.22.61-.22.15,0,.23.03.24.03,0,0,0,0,0,0,0,0,.02.03.05.12.03.12.06.35.04.81-.02.4-.07.94-.16,1.62l-2.08,16.98c-.19,1.55-.33,2.1-.41,2.3-.13.33-.3.54-.49.63-.25.11-.52.17-.79.17h-.79l-.22,1.77h7.39l.22-1.77h-.59c-.75,0-.95-.13-1.01-.18-.08-.07-.14-.13-.19-.2,0,0-.04-.05-.06-.22-.02-.12-.03-.34,0-.76.02-.36.07-.86.15-1.49l.52-4.22c.19.18.39.32.59.44.27.15.55.25.85.29.27.04.56.07.88.07.96,0,1.86-.31,2.7-.92.79-.59,1.51-1.38,2.14-2.35.61-.96,1.14-2.09,1.56-3.36.42-1.26.72-2.61.89-3.99.15-1.25.19-2.43.1-3.53-.09-1.12-.29-2.11-.6-2.95ZM544.06,172.5c-.12.99-.3,1.93-.55,2.78-.24.83-.52,1.56-.85,2.16-.31.57-.67,1.02-1.06,1.34-.35.28-.72.42-1.11.42-.27,0-.51-.06-.72-.17-.22-.12-.41-.28-.57-.49-.17-.21-.3-.46-.39-.75-.1-.3-.15-.62-.16-.96-.02-.29.01-1,.23-2.77l.8-6.55c.33-.38.62-.72.88-1.01.28-.31.53-.57.76-.77.21-.18.41-.32.58-.4.14-.07.28-.1.42-.1.33,0,.61.13.85.42.3.34.53.83.71,1.45.18.65.29,1.45.33,2.37.04.93-.01,1.95-.15,3.04ZM455.98,155.73c1.07,0,1.44.15,1.52.2.17.12.3.24.4.38.09.12.18.31.25.54.08.27.13.62.17,1.04.04.45.07,1.02.07,1.71v.51h1.3l.84-6.86h-14.85l-.22,1.77h1.22c.7,0,.92.28,1.01.47.05.11.19.64-.08,2.84l-2.12,17.27c-.19,1.57-.35,2.2-.45,2.46-.06.17-.15.32-.25.45-.12.14-.26.26-.39.35-.13.09-.27.15-.4.19-.14.04-.28.06-.4.06h-1.09l-.22,1.77h14.76l2.73-7.71h-1.6l-.14.3c-.38.82-.75,1.53-1.09,2.11-.34.59-.67,1.07-.97,1.44-.24.3-.47.54-.67.72-.18.16-.38.29-.59.37-.23.09-.51.16-.81.2-.32.04-.74.07-1.24.07h-3.04c-.26,0-.4-.02-.48-.04-.12-.03-.16-.06-.21-.11-.03-.07-.05-.15-.06-.22-.01-.1-.03-.5.16-2.02l1.02-8.31h3.48c.33,0,.61.03.83.08.2.05.36.12.48.21.12.09.21.19.28.3.07.13.13.29.17.46.02.09.05.31.07.8,0,.4,0,.93-.01,1.57l-.02.54h1.48l1.26-10.29h-1.52l-.07.44c-.1.64-.22,1.2-.36,1.66-.12.42-.28.77-.49,1.04-.18.24-.42.42-.7.54-.31.12-.72.19-1.23.19h-3.35l1.16-9.47h4.45ZM518.42,118.34l-8.13-5.61c-4.97,6.51-12.06,12.25-17.93,15.35l.26.77c7.16-1.16,16.77-4.45,23.02-10,1.55.32,2.26.13,2.77-.52ZM370.73,126.91h42.18c.97,0,1.61-.32,1.81-1.03-2.97-2.71-7.93-6.71-7.93-6.71l-4.39,5.87h-8.45c5.48-9.74,10.38-22.12,12.96-30.44,1.55-.07,2.26-.65,2.52-1.55l-10.77-2.58c-1.03,10-3.42,24.18-5.93,34.57h-22.51l.52,1.87ZM401.53,177.56s-.08.08-.11.1c-.01-.07-.02-.19-.02-.37,0-.19.04-.54.08-1.04.05-.52.13-1.21.23-2.07l.75-6.1c.22-1.81.28-2.96.18-3.6-.19-1.14-.66-1.96-1.38-2.44-.69-.46-1.56-.7-2.59-.7-.77,0-1.5.15-2.14.44-.64.29-1.2.67-1.67,1.15-.47.47-.85,1-1.13,1.59-.29.59-.47,1.19-.55,1.79-.08.69-.02,1.25.19,1.68.34.7.9.8,1.2.8.5,0,.94-.24,1.29-.7.3-.4.5-.95.58-1.65l.11-1.12c.03-.22.09-.45.19-.67.09-.21.21-.4.36-.56.14-.16.3-.28.49-.38.16-.09.34-.13.54-.13.26,0,.48.05.67.16.16.09.29.26.39.51.12.3.2.73.22,1.27.03.57-.02,1.3-.12,2.17l-.05.43c-2.1,1.07-3.66,2.01-4.66,2.79-.45.36-.85.72-1.19,1.09-.35.38-.66.78-.91,1.2-.25.42-.46.86-.61,1.33-.16.46-.27.97-.34,1.51-.09.73-.09,1.41-.01,2.02.08.63.24,1.17.47,1.63.25.48.57.87.97,1.14.41.28.88.42,1.4.42.65,0,1.27-.19,1.85-.57.19-.12.59-.42,1.78-1.59.02.48.1.87.24,1.17.4.84,1.06.96,1.42.96,1.12,0,2.28-1.04,3.66-3.27l.04-.06.37-2.99s-1.62,2.03-1.78,2.23c-.15.19-.28.33-.39.44ZM398.24,176.24c-1.47,1.51-2.16,1.68-2.39,1.68-.13,0-.25-.04-.36-.13-.14-.11-.27-.28-.36-.5-.11-.24-.19-.54-.24-.89-.05-.35-.04-.75,0-1.17.08-.67.29-1.29.63-1.84.34-.56.87-1.12,1.59-1.68.19-.15.52-.37.95-.63.25-.15.54-.31.86-.5l-.69,5.66ZM493.24,155.96h-1.35l-.13.33c-.25.66-.48,1.21-.68,1.65-.2.44-.35.78-.47,1.01-.49.9-1.03,1.7-1.59,2.35-.55.64-1.06,1.09-1.52,1.34l-.23.13-.18,1.5h1.92l-1.41,11.49c-.17,1.34-.19,2.36-.07,3.03.06.37.16.7.31.98.15.29.32.53.52.73.21.21.44.37.7.48.26.11.53.17.8.17.38,0,.77-.1,1.17-.3.37-.19.73-.47,1.07-.83.33-.35.65-.78.95-1.3.29-.5.57-1.1.82-1.77l.26-.7h-1.61l-.13.32c-.18.45-.4.78-.64.99-.21.18-.4.27-.55.27-.08,0-.14-.02-.18-.04,0,0-.05-.04-.11-.2-.04-.12-.09-.35-.11-.76-.01-.35.02-.81.08-1.38l1.37-11.19h2.83l.3-2.41h-2.83l.73-5.9ZM478.08,179.05c-.07-.02-.13-.05-.18-.16-.05-.11-.12-.33-.12-.78,0-.42.04-1.01.14-1.76l.94-7.67c.16-1.33.22-2.45.16-3.33-.06-.92-.21-1.67-.45-2.25-.26-.62-.61-1.07-1.06-1.36-.43-.27-.93-.41-1.48-.41-1.16,0-2.4.8-3.77,2.45l.3-2.45h-1.29l-4.35,2.44.28,1.78.64-.34c.31-.16.5-.21.66-.21.04,0,.07,0,.11,0,0,0,.09.14.09.68,0,.47-.12,1.77-.37,3.87l-.82,6.67c-.08.65-.16,1.16-.26,1.57-.08.37-.19.67-.31.88-.1.17-.21.28-.33.34-.14.07-.33.1-.57.1h-.72l-.21,1.75h7.03l.21-1.75h-.59c-.29,0-.54-.02-.7-.05-.17-.03-.24-.08-.27-.1-.04-.03-.06-.06-.08-.11-.05-.12-.08-.26-.11-.41-.02-.12-.05-.55.14-2.09l1.15-9.33c1.09-1.46,2.11-2.23,2.94-2.23.32,0,.64.09.81.72.18.67.17,1.8-.02,3.36l-.9,7.35c-.08.64-.16,1.17-.24,1.59-.07.37-.17.67-.29.87-.09.16-.2.26-.33.32-.11.05-.34.11-.74.11h-.71l-.21,1.75h7.03l.21-1.75h-.59c-.32,0-.57-.02-.76-.07ZM470.31,126.66h-12.51v-19.48h16.44c.97,0,1.68-.32,1.87-1.03-3.03-2.77-8.13-6.71-8.13-6.71l-4.51,5.87h-5.68v-14.9c1.74-.32,2.26-.97,2.39-1.87l-10.25-.9v39.02h-8.96v-24.25c1.68-.26,2.19-.9,2.32-1.81l-9.8-.84v26.89h-9.8l.52,1.87h57.07c.9,0,1.61-.32,1.81-1.03-3.1-2.77-8.19-6.84-8.19-6.84l-4.58,6ZM332.1,78.68h-14.12c2.9-2.45,1.87-8.96-10.45-8.32l-.45.39c2.26,1.81,4.71,4.97,5.42,7.93h-27.41l.58,1.81h57.33c.9,0,1.61-.32,1.81-1.03-3.1-2.64-8.25-6.38-8.25-6.38l-4.45,5.61ZM381.09,155h.59c.47,0,.83.09,1.07.27.07.05.26.19.19.81-.07.56-.4,1.66-.97,3.26l-4.46,12.53-1.4-12.22c-.19-1.61-.24-2.74-.17-3.37.05-.44.18-.78.37-1.01.16-.19.4-.28.75-.28h.94l.22-1.77h-8.02l-.22,1.77h.59c.26,0,.47.04.63.13.16.09.29.22.4.4.13.21.24.48.33.8.1.35.18.76.26,1.2l.46,3.85-3.75,10.51-1.44-12.7c-.1-.79-.16-1.46-.19-1.99-.03-.62-.02-.91,0-1.04.04-.34.17-.62.37-.85.18-.2.42-.3.75-.3h.78l.22-1.77h-7.68l-.22,1.77h.59c.39,0,.68.08.85.23.19.17.33.45.42.84.03.15.13.72.38,2.87l2.67,22.54h1.3l5.52-15.27,1.79,15.27h1.36l7.75-21.78c.59-1.71,1-2.79,1.21-3.21.16-.32.32-.58.46-.78.13-.18.27-.33.4-.44.12-.1.24-.16.37-.2.14-.04.31-.07.49-.07h.46l.22-1.77h-6.4l-.22,1.77ZM362.86,130.98c2.97,0,6.06-1.68,6.19-2.26v-37.86c1.23-.19,1.81-.65,2-1.23l-3.22-1.16c2.52-4,4.77-8.51,6.64-13.35,1.42,0,2.26-.52,2.58-1.36l-10.77-3.35c-2.77,12.64-8.32,25.54-13.61,33.6l.71.52c2.84-2.19,5.55-4.64,8.06-7.48v33.92h1.42ZM420.02,163.63h.59c.27,0,.41.03.49.05l.09-.3v.37c.02.08.02.18,0,.3-.06.46-.19.95-.39,1.46l-3.28,8.29-1.49-7.34c-.17-.84-.23-1.5-.17-1.95.03-.28.12-.49.28-.67.08-.09.23-.21.55-.21h.74l.22-1.77h-6.69l-.2,1.6.4.14c.45.16.62.31.69.4,0,0,.05.06.15.29.08.2.17.42.24.65.08.24.16.48.23.71.06.22.11.39.14.53l2.65,13.4-1.18,2.97c-.22.56-.44,1.03-.63,1.39-.19.35-.37.63-.53.83-.18.22-.3.31-.37.35-.06.03-.1.05-.1.06-.02-.01-.06-.03-.11-.06-.16-.08-.33-.17-.54-.26l-.56-.25c-.25-.11-.45-.16-.62-.16-.58,0-1.07.23-1.45.68-.35.41-.57.95-.65,1.6-.04.35-.03.68.04,1,.07.33.19.62.36.87.17.26.4.48.66.65.28.18.61.27.97.27.44,0,.91-.14,1.4-.41.45-.25.91-.62,1.36-1.1.44-.46.87-1.05,1.3-1.73.42-.69.81-1.48,1.17-2.36l7.13-17.92c.24-.59.43-1.05.59-1.39.14-.3.27-.53.39-.67.12-.14.21-.19.25-.2.13-.05.29-.09.49-.12l.38-.07.21-1.69h-4.98l-.22,1.77ZM377.05,91.57l-.84.45c4.19,8.64,5.03,20.44,5.03,27.54,5.03,8.38,16.38-8.19-4.19-27.99ZM372.34,87.9h39.4c.9,0,1.55-.32,1.74-1.03-2.84-2.58-7.61-6.32-7.61-6.32l-4.26,5.55h-29.79l.52,1.81ZM384.53,70.62l-.52.39c2.39,3.29,4.71,8.13,5.03,12.58,7.22,5.87,14.51-8.45-4.51-12.96ZM588.34,164.72c.11-.23.25-.44.42-.61.17-.17.36-.32.57-.43.2-.1.41-.15.63-.15.32,0,.6.06.84.18.22.11.42.31.59.6.19.33.35.79.47,1.37.13.61.22,1.39.26,2.32l.02.5h1.39l.88-7.16h-1.36l-.14.3c-.14.31-.22.42-.22.44-.03,0-.1-.02-.26-.08-.21-.08-.45-.17-.71-.26-.26-.09-.53-.18-.79-.26-.3-.09-.57-.14-.79-.14-.62,0-1.22.16-1.78.47-.54.3-1.02.71-1.45,1.22-.42.5-.77,1.1-1.04,1.78-.28.67-.46,1.41-.56,2.18-.07.6-.1,1.15-.07,1.63.03.51.14,1,.35,1.47.2.46.5.92.88,1.36.37.43.87.89,1.48,1.38.57.47,1.04.89,1.4,1.25.33.34.59.66.76.96.16.29.26.56.29.85.04.32.03.68-.02,1.08-.04.33-.12.63-.24.91-.12.27-.27.52-.45.72-.17.19-.37.35-.58.47-.19.1-.39.15-.6.15-.32,0-.63-.09-.91-.27-.3-.19-.57-.48-.8-.87-.25-.41-.44-.94-.59-1.58-.15-.65-.23-1.43-.24-2.3v-.51h-1.42l-.92,7.45h1.35l.14-.29c.07-.13.11-.2.11-.22.04,0,.08.01.12.02.09.03.2.07.31.12.49.23.96.39,1.4.49.45.1.88.15,1.28.15.58,0,1.18-.15,1.76-.45.57-.29,1.1-.7,1.57-1.21.47-.51.88-1.13,1.22-1.85.34-.72.56-1.53.67-2.4.07-.57.07-1.12,0-1.64-.07-.55-.22-1.08-.47-1.59-.24-.49-.57-.99-.99-1.48-.41-.48-.93-.97-1.55-1.46-.63-.5-1.12-.93-1.47-1.29-.34-.34-.59-.66-.75-.95-.15-.27-.24-.53-.26-.77-.03-.28-.02-.58.02-.9.03-.23.1-.46.21-.69ZM574.92,176.35l1.84-15.01h-1.3l-4.34,2.44.25,1.78.65-.34c.39-.21.6-.24.69-.24.05,0,.12,0,.12,0,.01.04.03.12.04.26.02.29.01.76-.04,1.39-.05.65-.15,1.54-.29,2.67l-.85,6.92c-.16,1.3-.32,1.87-.42,2.11-.07.17-.15.32-.22.44-.05.08-.1.14-.17.19-.07.05-.17.09-.28.11-.17.03-.39.05-.64.05h-.46l-.21,1.75h6.93l.21-1.75h-.59c-.63,0-.79-.13-.79-.13-.07-.06-.12-.13-.17-.21,0,0-.04-.07-.07-.28-.02-.19-.03-.46,0-.79.02-.35.06-.8.13-1.36ZM511.78,163.59c-.38-.72-.87-1.28-1.47-1.67-.61-.4-1.31-.6-2.08-.6-.87,0-1.73.24-2.54.72-.8.47-1.52,1.16-2.17,2.05-.63.87-1.18,1.95-1.63,3.2-.45,1.24-.77,2.67-.97,4.26-.18,1.46-.2,2.8-.05,3.98.15,1.2.43,2.23.83,3.08.42.88.96,1.57,1.61,2.06.67.5,1.44.76,2.27.76.77,0,1.52-.24,2.22-.7.66-.44,1.27-1.02,1.82-1.74.53-.7,1-1.5,1.39-2.38.39-.87.69-1.77.91-2.68l.06-.27-1.12-1.22-.3.79c-.56,1.49-1.15,2.54-1.76,3.13-.57.55-1.17.82-1.82.82-.47,0-.89-.15-1.29-.47-.41-.33-.77-.83-1.04-1.48-.29-.68-.49-1.54-.6-2.54-.09-.9-.08-1.91.03-3.02h8.35l.06-.46c.14-1.15.15-2.21.02-3.14-.13-.95-.38-1.78-.74-2.47ZM508.88,167.49h-4.48c.11-.48.26-.91.42-1.29.23-.54.5-1.01.8-1.38.28-.36.58-.63.88-.81.28-.16.55-.25.82-.25.33,0,.62.15.91.46.31.34.53.84.64,1.47.05.25.09.77.01,1.81ZM564.71,162.23c-.17-.27-.39-.48-.64-.64-.27-.17-.58-.25-.91-.25-.9,0-1.82.69-2.79,2.09l.26-2.09h-1.28l-4.33,2.42.12,1.84.71-.38c.36-.19.59-.23.72-.23.17,0,.22.36.22.66.01.23-.04,1.05-.36,3.64l-.85,6.96c-.09.7-.18,1.26-.28,1.68-.09.37-.2.65-.33.83-.1.14-.22.23-.37.28-.2.06-.48.1-.81.1h-.46l-.21,1.75h7.24l.21-1.75h-.59c-.36,0-.64-.06-.82-.17-.16-.1-.27-.24-.34-.43-.09-.24-.13-.55-.12-.91,0-.4.04-.87.11-1.4l1.01-8.45c.2-.43.4-.83.6-1.19.2-.36.38-.66.55-.92.16-.23.31-.42.44-.54,0,0,0,0,.01-.01.13.14.27.29.43.45.17.17.35.34.52.49.26.23.54.34.81.34.49,0,.92-.25,1.3-.73.33-.42.53-.94.61-1.55.04-.34.03-.67-.03-.99-.06-.32-.18-.62-.34-.87ZM577.56,152.79c-.14-.25-.31-.45-.53-.6-.24-.17-.51-.25-.8-.25-.28,0-.55.08-.81.23-.24.14-.45.32-.63.55-.17.22-.32.47-.43.75-.12.29-.2.59-.24.91-.04.32-.03.63.01.93.05.29.14.56.27.8.14.25.32.46.53.61.24.17.51.25.8.25.28,0,.55-.08.81-.23.23-.14.44-.33.62-.56.17-.22.31-.47.43-.76.12-.28.2-.59.24-.91.04-.32.03-.63-.01-.93-.05-.3-.14-.56-.26-.79ZM612.32,163.59c-.38-.72-.87-1.28-1.47-1.67-.61-.4-1.31-.6-2.08-.6-.87,0-1.73.24-2.54.72-.8.47-1.52,1.15-2.17,2.05-.63.87-1.18,1.95-1.63,3.2-.45,1.24-.77,2.67-.97,4.26-.18,1.46-.2,2.8-.05,3.98.15,1.19.43,2.23.83,3.08.42.88.96,1.57,1.61,2.06.67.5,1.44.76,2.27.76.77,0,1.52-.24,2.22-.7.66-.44,1.27-1.02,1.82-1.74.53-.7,1-1.5,1.39-2.38.39-.87.69-1.77.91-2.68l.06-.27-1.12-1.22-.3.79c-.56,1.49-1.15,2.54-1.76,3.13-.57.55-1.17.82-1.82.82-.47,0-.89-.15-1.29-.47-.41-.33-.77-.83-1.04-1.48-.29-.69-.49-1.54-.6-2.55-.09-.89-.08-1.9.03-3.02h8.35l.06-.46c.14-1.15.15-2.21.02-3.14-.13-.95-.38-1.78-.74-2.47ZM609.42,167.49h-4.48c.12-.48.26-.91.42-1.29.23-.54.5-1.01.8-1.38.28-.36.58-.63.88-.81.28-.16.55-.25.82-.25.33,0,.62.15.91.46.31.34.53.84.64,1.47.05.25.09.77.01,1.81ZM322.66,163.59c-.38-.72-.87-1.28-1.47-1.67-.61-.4-1.31-.6-2.08-.6-.87,0-1.73.24-2.54.72-.8.47-1.52,1.16-2.17,2.05-.63.87-1.18,1.95-1.63,3.2-.45,1.24-.77,2.67-.97,4.26-.18,1.46-.2,2.8-.05,3.98.15,1.2.43,2.23.83,3.08.42.88.96,1.57,1.61,2.06.67.5,1.44.76,2.27.76.77,0,1.52-.24,2.22-.7.66-.44,1.27-1.02,1.82-1.74.53-.7,1-1.5,1.39-2.38.39-.87.69-1.77.91-2.68l.06-.27-1.12-1.22-.3.79c-.56,1.49-1.15,2.54-1.76,3.13-.57.55-1.17.82-1.82.82-.47,0-.89-.15-1.29-.47-.41-.33-.77-.83-1.04-1.48-.29-.68-.49-1.54-.6-2.54-.09-.9-.08-1.91.03-3.02h8.35l.06-.46c.14-1.15.15-2.21.02-3.14-.13-.95-.38-1.78-.74-2.47ZM319.77,167.49h-4.48c.11-.47.26-.91.42-1.29.23-.54.5-1.01.8-1.38.28-.36.58-.63.88-.81.28-.16.55-.25.82-.25.33,0,.62.15.91.46.31.34.53.84.64,1.47.05.25.09.77.01,1.81ZM609.03,81.51h-19.15c1.16-2.39,2.19-4.71,3.1-7.03,1.68,0,2.26-.45,2.52-1.23l-10.51-3.03c-.84,3.61-2.06,7.35-3.61,11.29h-18.32l.58,1.87h16.96c-4,9.35-10.12,18.83-18.32,25.54l.52.65c5.48-2.71,10.12-6.19,14.12-10.12v5.74c0,8.64-.26,17.99-5.09,25.28l.52.58c7.74-4.64,10.64-11.09,11.74-17.35h20.38v7.35c0,.84-.32,1.29-1.42,1.29-1.42,0-8.25-.39-8.25-.39v.84c3.29.58,4.71,1.42,5.74,2.58,1.03,1.23,1.35,2.97,1.61,5.48,8.84-.84,10-3.8,10-8.9v-26.38c1.48-.26,2.45-.9,2.9-1.55l-7.74-5.93-3.55,4.19h-17.86l-2.13-.77c2-2.64,3.68-5.35,5.16-8.13h30.89c.9,0,1.61-.32,1.81-1.03-3.03-2.64-8.06-6.38-8.06-6.38l-4.51,5.55ZM584.66,94.09h19.8v7.87h-19.8v-7.87ZM584.66,105.18v-1.35h19.8v8h-20.12c.26-2.32.32-4.51.32-6.64ZM529.19,162.23c-.17-.27-.39-.48-.64-.64-.27-.17-.58-.25-.91-.25-.9,0-1.82.69-2.79,2.09l.26-2.09h-1.28l-4.33,2.42.12,1.84.71-.38c.36-.19.59-.23.72-.23.17,0,.22.36.22.66.01.23-.04,1.05-.36,3.64l-.85,6.96c-.09.7-.18,1.26-.28,1.68-.09.37-.2.65-.33.83-.1.14-.22.23-.37.28-.2.06-.48.1-.81.1h-.46l-.21,1.75h7.24l.21-1.75h-.59c-.36,0-.64-.06-.82-.17-.16-.1-.27-.24-.34-.43-.09-.24-.13-.55-.12-.91,0-.4.04-.87.11-1.4l1.01-8.45c.2-.43.4-.83.6-1.19.19-.36.38-.66.55-.92.16-.23.31-.42.44-.54,0,0,0,0,.01-.01.13.14.27.29.43.45.17.17.35.34.52.49.26.23.54.34.82.34.49,0,.92-.25,1.3-.73.33-.42.53-.94.61-1.55.04-.34.03-.67-.03-.99-.06-.32-.18-.62-.34-.87ZM528.29,115.24l-.39.84c7.67,3.55,12.9,8.13,15.61,11.48,6.26,5.74,19.28-7.87-15.22-12.32ZM334.2,164.72c.11-.23.25-.44.42-.61.17-.17.36-.32.57-.43.2-.1.41-.15.63-.15.32,0,.6.06.84.18.22.11.42.31.58.6.19.33.35.79.47,1.37.13.61.22,1.39.26,2.32l.02.5h1.39l.88-7.16h-1.36l-.14.3c-.14.31-.22.42-.22.44-.03,0-.1-.02-.26-.08-.21-.08-.45-.17-.71-.26-.26-.09-.53-.18-.79-.26-.3-.09-.56-.14-.79-.14-.62,0-1.22.16-1.78.47-.54.3-1.02.71-1.45,1.22-.42.5-.77,1.1-1.04,1.78-.28.67-.46,1.41-.56,2.18-.07.6-.1,1.15-.07,1.63.03.51.14,1,.35,1.47.2.46.5.92.88,1.36.37.43.87.89,1.48,1.38.57.47,1.04.89,1.4,1.25.33.34.59.66.76.96.16.29.26.56.29.85.04.32.03.68-.02,1.08-.04.33-.12.63-.24.91-.12.27-.27.52-.45.72-.17.19-.37.35-.58.47-.19.1-.39.15-.6.15-.32,0-.63-.09-.91-.27-.3-.19-.57-.48-.8-.87-.25-.41-.44-.94-.59-1.58-.15-.65-.23-1.43-.24-2.3v-.51h-1.42l-.92,7.45h1.35l.14-.29c.07-.13.11-.2.11-.22.04,0,.08.01.12.02.09.03.2.07.31.12.49.23.96.39,1.4.49.45.1.88.15,1.28.15.58,0,1.18-.15,1.76-.45.57-.29,1.1-.7,1.57-1.21.47-.51.88-1.13,1.22-1.85.34-.72.56-1.53.67-2.4.07-.57.07-1.12,0-1.64-.07-.55-.22-1.08-.47-1.59-.24-.49-.57-.99-.99-1.48-.41-.48-.93-.97-1.55-1.46-.63-.5-1.12-.93-1.47-1.29-.34-.34-.59-.66-.75-.95-.15-.27-.24-.53-.26-.77-.03-.28-.02-.58.02-.9.03-.23.1-.46.21-.69ZM456.96,74.55c2.13-.19,3.03-.58,3.22-1.48l-11.87-3.1c-2.84,9.48-15.03,23.54-25.86,30.89l.45.65c12.64-5.29,26.57-16.12,33.02-26.18,3.93,10.58,12.77,18.77,22.31,24.06.58-3.03,2.84-6.58,6.26-7.48l.13-1.03c-9.8-3.03-21.8-8.19-27.67-16.32ZM541.64,83.26h-6.51c3.48-2.26,7.03-5.16,9.29-7.48,1.42.19,2.19-.32,2.52-1.1l-9.09-2.84c-.97,3.42-2.64,8.06-4.26,11.41h-1.87v-10.38c1.48-.26,1.93-.84,2.06-1.61l-8.77-.77v12.77h-4.45v-10.38c1.42-.26,1.93-.84,2-1.61l-8.64-.77v12.77h-5.93c4.06-.84,5.35-8.84-7.29-10.96l-.58.39c2.19,2.32,4.19,6.13,4.32,9.54.71.58,1.42.9,2.06,1.03h-13.16l.52,1.87h36.31c-.71,2.77-1.87,6.26-3.1,9.09h-11.8c3.74-.9,5.09-7.42-6.19-8.9l-.58.39c1.48,1.81,2.9,4.77,2.97,7.48.65.52,1.35.9,2,1.03h-16.57l.52,1.81h21.35v5.8h-18.64l.52,1.81h18.12v6.26h-24.89l.52,1.87h24.38v19.28h1.35c3.87,0,6.19-1.42,6.26-1.81v-17.48h23.8c.84,0,1.55-.32,1.68-1.03-2.71-2.45-7.22-5.68-7.22-5.68l-4.06,4.84h-14.19v-6.26h17.02c.97,0,1.61-.32,1.81-1.03-2.64-2.26-6.9-5.22-6.9-5.22l-3.68,4.45h-8.25v-5.8h21.28c.84,0,1.55-.32,1.74-1.03-2.77-2.32-7.16-5.42-7.16-5.42l-3.93,4.64h-8.32c2.71-1.81,5.29-3.87,7.03-5.55,1.42.07,2.19-.39,2.39-1.16l-8.45-2.39h19.8c.97,0,1.61-.32,1.81-1.03-2.64-2.32-7.03-5.35-7.03-5.35l-3.87,4.51ZM333.26,102.15h-36.44l-8.06-3.16v31.99h1.1c3.1,0,6.38-1.68,6.38-2.45v-24.57h37.66v18.12c0,.77-.26,1.23-1.23,1.23-1.48,0-7.16-.39-7.16-.39v.84c3.03.52,4.26,1.35,5.16,2.39.9,1.03,1.16,2.71,1.35,4.9,8.38-.65,9.48-3.42,9.48-8.25v-17.54c1.35-.26,2.26-.84,2.64-1.35l-7.48-5.55-3.42,3.81Z"/>
</svg>